<?xml version="1.0" encoding="UTF-8" standalone="no"?>
<svg viewBox="0 0 418 160" xmlns="http://www.w3.org/2000/svg">
  <style>
    .kcolor {fill:#333F50; stroke:#333F50}
    .top    {transform: skewX(35deg)}
    .bottom {transform: skewX(-35deg)}
    .ktext  {stroke-width:0.4mm}
  </style>
  <defs>
    <rect class="top kcolor"    width="26" height="50" id="huntstepT" />
    <rect class="bottom kcolor" width="26" height="50" id="huntstepB" />
    <path id="text" class="kcolor ktext" d="M 0 60.64 L 0 6.08 L 6.72 6.08 L 6.72 31.28 L 29.6 6.08 L 38 6.08 L 17.04 28.96 L 41.2 60.64 L 32.8 60.64 L 12.4 33.92 L 6.72 40.16 L 6.72 60.64 L 0 60.64 Z M 107.76 21.28 L 106.64 26.96 A 49.074 49.074 0 0 0 103.94 26.204 Q 102.636 25.88 101.472 25.682 A 25.996 25.996 0 0 0 100.68 25.56 Q 98.08 25.2 95.92 25.2 A 9.519 9.519 0 0 0 93.759 25.433 A 6.925 6.925 0 0 0 91.24 26.56 Q 89.36 27.92 89.36 30.08 A 4.329 4.329 0 0 0 90.731 33.078 A 5.908 5.908 0 0 0 91.04 33.36 A 17.958 17.958 0 0 0 93.425 35.061 A 21.776 21.776 0 0 0 94.76 35.8 Q 96.88 36.88 99.48 38.16 Q 102.08 39.44 104.36 41.04 Q 106.64 42.64 108.08 44.88 A 9.411 9.411 0 0 1 109.401 48.287 A 12.421 12.421 0 0 1 109.6 50.24 Q 109.531 53.152 108.47 55.193 A 8.023 8.023 0 0 1 108.12 55.8 Q 106.72 58 104.52 59.32 Q 102.32 60.64 99.76 61.16 A 26.773 26.773 0 0 1 96.981 61.58 A 21.248 21.248 0 0 1 94.96 61.68 A 56.818 56.818 0 0 1 89.862 61.444 A 63.43 63.43 0 0 1 89 61.36 A 32.946 32.946 0 0 1 85.396 60.772 A 42.563 42.563 0 0 1 82.4 60 L 83.6 54.24 A 70.786 70.786 0 0 0 86.937 55.048 Q 88.528 55.39 89.969 55.611 A 43.077 43.077 0 0 0 90.16 55.64 A 52.196 52.196 0 0 0 92.072 55.891 Q 93.78 56.08 95.04 56.08 Q 96.48 56.08 97.88 55.76 A 10.796 10.796 0 0 0 99.516 55.253 A 9.007 9.007 0 0 0 100.4 54.84 A 5.338 5.338 0 0 0 101.719 53.858 A 4.853 4.853 0 0 0 102.2 53.28 Q 102.88 52.32 102.88 51.12 A 6.052 6.052 0 0 0 102.386 48.873 A 5.628 5.628 0 0 0 101.36 47.32 A 12.425 12.425 0 0 0 99.593 45.753 A 16.89 16.89 0 0 0 97.64 44.52 Q 95.36 43.28 92.76 42.04 Q 90.16 40.8 87.88 39.16 Q 85.6 37.52 84.08 35.24 A 8.806 8.806 0 0 1 82.797 32.083 A 12.392 12.392 0 0 1 82.56 29.6 Q 82.56 27.2 83.8 25.32 Q 85.04 23.44 87 22.2 A 16.557 16.557 0 0 1 91.027 20.367 A 18.432 18.432 0 0 1 91.32 20.28 A 17.259 17.259 0 0 1 94.615 19.657 A 15.153 15.153 0 0 1 95.92 19.6 A 35.604 35.604 0 0 1 98.339 19.687 Q 99.575 19.772 100.938 19.938 A 57.939 57.939 0 0 1 101.12 19.96 Q 104 20.32 107.76 21.28 Z M 121.2 9.2 L 127.6 8.4 L 127.6 20.4 L 139.2 20.4 L 139.2 25.6 L 127.6 25.6 L 127.6 46.96 Q 127.6 49.536 127.714 51.274 A 35.318 35.318 0 0 0 127.72 51.36 A 15.658 15.658 0 0 0 127.822 52.39 Q 127.893 52.909 127.995 53.346 A 6.226 6.226 0 0 0 128.24 54.16 A 3.923 3.923 0 0 0 128.565 54.824 Q 128.896 55.356 129.36 55.64 A 2.814 2.814 0 0 0 130.173 55.968 Q 130.52 56.052 130.924 56.073 A 5.331 5.331 0 0 0 131.2 56.08 A 11.154 11.154 0 0 0 133.721 55.7 Q 134.892 55.394 136.175 54.844 A 25.548 25.548 0 0 0 138.24 53.84 L 140.16 58.72 Q 137.964 60.184 136.017 60.846 A 11.575 11.575 0 0 1 135.24 61.08 Q 132.96 61.68 130.72 61.68 Q 127.538 61.68 125.504 60.59 A 6.23 6.23 0 0 1 123.32 58.68 Q 121.481 56.077 121.237 50.494 A 40.744 40.744 0 0 1 121.2 48.72 L 121.2 25.6 L 113.84 25.6 L 113.84 20.4 L 121.2 20.4 L 121.2 9.2 Z M 72.96 54.32 L 74.16 59.68 Q 72.32 60.24 70.36 60.64 Q 68.4 61.04 66.04 61.36 A 36.046 36.046 0 0 1 61.836 61.674 A 40.295 40.295 0 0 1 61.12 61.68 A 25.212 25.212 0 0 1 56.111 61.198 A 21.831 21.831 0 0 1 53.68 60.56 Q 50.24 59.44 47.68 56.96 A 15.571 15.571 0 0 1 44.917 53.308 A 20.516 20.516 0 0 1 43.64 50.52 A 21.467 21.467 0 0 1 42.628 46.71 Q 42.306 44.875 42.206 42.769 A 41.272 41.272 0 0 1 42.16 40.8 A 31.868 31.868 0 0 1 42.474 36.216 A 23.087 23.087 0 0 1 43.6 31.64 A 21.046 21.046 0 0 1 45.498 27.692 A 17.155 17.155 0 0 1 47.56 25 Q 50.08 22.32 53.48 20.96 A 19.228 19.228 0 0 1 59.401 19.648 A 22.591 22.591 0 0 1 60.88 19.6 A 17.037 17.037 0 0 1 64.219 19.912 A 12.698 12.698 0 0 1 67.68 21.12 Q 70.56 22.64 72.44 25.24 A 17.323 17.323 0 0 1 74.647 29.432 A 20.993 20.993 0 0 1 75.24 31.32 A 28.253 28.253 0 0 1 76.152 37.923 A 31.642 31.642 0 0 1 76.16 38.64 L 74.96 42.16 L 49.12 42.16 Q 49.12 44.64 49.76 47.12 Q 50.4 49.6 51.96 51.6 A 11.12 11.12 0 0 0 54.983 54.261 A 13.453 13.453 0 0 0 56.04 54.84 A 11.233 11.233 0 0 0 58.675 55.73 Q 60.323 56.08 62.32 56.08 Q 64.72 56.08 66.72 55.8 Q 68.329 55.575 69.602 55.298 A 25.358 25.358 0 0 0 70.2 55.16 A 25.308 25.308 0 0 0 72.14 54.608 A 21.52 21.52 0 0 0 72.96 54.32 Z M 201.68 54.32 L 202.88 59.68 Q 201.04 60.24 199.08 60.64 Q 197.12 61.04 194.76 61.36 A 36.046 36.046 0 0 1 190.556 61.674 A 40.295 40.295 0 0 1 189.84 61.68 A 25.212 25.212 0 0 1 184.831 61.198 A 21.831 21.831 0 0 1 182.4 60.56 Q 178.96 59.44 176.4 56.96 A 15.571 15.571 0 0 1 173.637 53.308 A 20.516 20.516 0 0 1 172.36 50.52 A 21.467 21.467 0 0 1 171.348 46.71 Q 171.026 44.875 170.926 42.769 A 41.272 41.272 0 0 1 170.88 40.8 A 31.868 31.868 0 0 1 171.194 36.216 A 23.087 23.087 0 0 1 172.32 31.64 A 21.046 21.046 0 0 1 174.218 27.692 A 17.155 17.155 0 0 1 176.28 25 Q 178.8 22.32 182.2 20.96 A 19.228 19.228 0 0 1 188.121 19.648 A 22.591 22.591 0 0 1 189.6 19.6 A 17.037 17.037 0 0 1 192.939 19.912 A 12.698 12.698 0 0 1 196.4 21.12 Q 199.28 22.64 201.16 25.24 A 17.323 17.323 0 0 1 203.367 29.432 A 20.993 20.993 0 0 1 203.96 31.32 A 28.253 28.253 0 0 1 204.872 37.923 A 31.642 31.642 0 0 1 204.88 38.64 L 203.68 42.16 L 177.84 42.16 Q 177.84 44.64 178.48 47.12 Q 179.12 49.6 180.68 51.6 A 11.12 11.12 0 0 0 183.703 54.261 A 13.453 13.453 0 0 0 184.76 54.84 A 11.233 11.233 0 0 0 187.395 55.73 Q 189.043 56.08 191.04 56.08 Q 193.44 56.08 195.44 55.8 Q 197.049 55.575 198.322 55.298 A 25.358 25.358 0 0 0 198.92 55.16 A 25.308 25.308 0 0 0 200.86 54.608 A 21.52 21.52 0 0 0 201.68 54.32 Z M 213.6 60.64 L 213.6 0.72 L 220 0 L 220 60.64 L 213.6 60.64 Z M 147.44 60.64 L 147.44 26.88 Q 147.44 25.109 147.069 21.41 A 161.364 161.364 0 0 0 147.04 21.12 L 152.96 20.32 L 153.6 26.16 L 153.68 26.16 Q 155.12 24.32 156.48 22.96 A 19.723 19.723 0 0 1 158.769 20.988 A 17.752 17.752 0 0 1 159.32 20.6 Q 160.537 19.778 161.672 19.632 A 3.815 3.815 0 0 1 162.16 19.6 A 12.31 12.31 0 0 1 162.571 19.589 Q 164.351 19.571 167.28 20 L 165.84 26.16 Q 163.341 25.706 162.276 25.753 A 3.593 3.593 0 0 0 162.16 25.76 A 3.36 3.36 0 0 0 160.895 26.023 Q 160.417 26.216 159.922 26.552 A 7.736 7.736 0 0 0 159.28 27.04 Q 157.76 28.32 156.64 29.76 A 32.234 32.234 0 0 0 154.893 32.115 A 39.889 39.889 0 0 0 153.84 33.76 L 153.84 60.64 L 147.44 60.64 Z M 49.36 37.04 L 69.52 37.04 A 5.251 5.251 0 0 0 69.509 36.73 Q 69.468 36.06 69.28 34.562 A 27.826 27.826 0 0 1 69.28 34.56 A 13.791 13.791 0 0 0 68.75 32.161 A 17.494 17.494 0 0 0 68.16 30.56 A 10.15 10.15 0 0 0 65.998 27.37 A 12.077 12.077 0 0 0 65.44 26.84 Q 63.6 25.2 60.56 25.2 Q 57.741 25.2 55.767 26.185 A 7.461 7.461 0 0 0 55.04 26.6 A 12.584 12.584 0 0 0 52.785 28.446 A 10.735 10.735 0 0 0 51.6 29.92 A 13.085 13.085 0 0 0 50.337 32.29 A 11.061 11.061 0 0 0 49.84 33.84 Q 49.395 35.695 49.363 36.862 A 6.447 6.447 0 0 0 49.36 37.04 Z M 178.08 37.04 L 198.24 37.04 A 5.251 5.251 0 0 0 198.229 36.73 Q 198.188 36.06 198 34.562 A 27.826 27.826 0 0 1 198 34.56 A 13.791 13.791 0 0 0 197.47 32.161 A 17.494 17.494 0 0 0 196.88 30.56 A 10.15 10.15 0 0 0 194.718 27.37 A 12.077 12.077 0 0 0 194.16 26.84 Q 192.32 25.2 189.28 25.2 Q 186.461 25.2 184.487 26.185 A 7.461 7.461 0 0 0 183.76 26.6 A 12.584 12.584 0 0 0 181.505 28.446 A 10.735 10.735 0 0 0 180.32 29.92 A 13.085 13.085 0 0 0 179.057 32.29 A 11.061 11.061 0 0 0 178.56 33.84 Q 178.115 35.695 178.083 36.862 A 6.447 6.447 0 0 0 178.08 37.04 Z"/>
  </defs>
  <!--
  <rect x="0" y="0" width="460" height="160" fill="#eeeeee" />
  -->
  <use href="#huntstepT" x="15" y="30" />
  <use href="#huntstepB" x="85" y="80" />
  <use href="#huntstepT" x="85" y="30" />
  <use href="#huntstepB" x="120" y="80" />
  <use href="#text"      x="172" y="46" />
</svg>
